ISO-10303-21;
HEADER;
FILE_DESCRIPTION(('STEP AP214'),'1');
FILE_NAME('bracket-rm.stp','2024-06-05T09:46:24',(' '),(' '),'Spatial InterOp 3D',' ',' ');
FILE_SCHEMA(('AUTOMOTIVE_DESIGN { 1 0 10303 214 1 1 1 1 }'));
ENDSEC;
DATA;
#1=PRODUCT_DEFINITION_CONTEXT('',#9,'design');
#2=APPLICATION_PROTOCOL_DEFINITION('INTERNATIONAL STANDARD','automotive_design',1994,#9);
#3=PRODUCT_CATEGORY_RELATIONSHIP('NONE','NONE',#10,#11);
#4=SHAPE_DEFINITION_REPRESENTATION(#12,#13);
#5= (GEOMETRIC_REPRESENTATION_CONTEXT(3)GLOBAL_UNCERTAINTY_ASSIGNED_CONTEXT((#16))GLOBAL_UNIT_ASSIGNED_CONTEXT((#18,#19,#20))REPRESENTATION_CONTEXT('NONE','WORKSPACE'));
#9=APPLICATION_CONTEXT(' ');
#10=PRODUCT_CATEGORY('part','NONE');
#11=PRODUCT_RELATED_PRODUCT_CATEGORY('detail',' ',(#22));
#12=PRODUCT_DEFINITION_SHAPE('NONE','NONE',#23);
#13=ADVANCED_BREP_SHAPE_REPRESENTATION('\X2\96F64EF651E04F554F53\X0\',(#24,#25),#5);
#16=UNCERTAINTY_MEASURE_WITH_UNIT(LENGTH_MEASURE(0.001),#18,'','');
#18= (CONVERSION_BASED_UNIT('MILLIMETRE',#28)LENGTH_UNIT()NAMED_UNIT(#31));
#19= (NAMED_UNIT(#33)PLANE_ANGLE_UNIT()SI_UNIT($,.RADIAN.));
#20= (NAMED_UNIT(#33)SOLID_ANGLE_UNIT()SI_UNIT($,.STERADIAN.));
#22=PRODUCT('\X2\96F64EF651E04F554F53\X0\','\X2\96F64EF651E04F554F53\X0\','PART-\X2\96F64EF651E04F554F53\X0\-DESC',(#39));
#23=PRODUCT_DEFINITION('','NONE',#40,#1);
#24=MANIFOLD_SOLID_BREP('\X2\96F64EF651E04F554F53\X0\',#41);
#25=AXIS2_PLACEMENT_3D('',#42,#43,#44);
#28=LENGTH_MEASURE_WITH_UNIT(LENGTH_MEASURE(1.0),#45);
#31=DIMENSIONAL_EXPONENTS(1.0,0.0,0.0,0.0,0.0,0.0,0.0);
#33=DIMENSIONAL_EXPONENTS(0.0,0.0,0.0,0.0,0.0,0.0,0.0);
#39=PRODUCT_CONTEXT('',#9,'mechanical');
#40=PRODUCT_DEFINITION_FORMATION_WITH_SPECIFIED_SOURCE(' ','NONE',#22,.NOT_KNOWN.);
#41=CLOSED_SHELL('',(#46,#47,#48,#49,#50,#51,#52,#53,#54,#55,#56,#57,#58,#59,#60,#61,#62,#63,#64,#65,#66,#67,#68,#69,#70,#71,#72,#73,#74,#75,#76,#77,#78,#79,#80,#81,#82,#83,#84,#85));
#42=CARTESIAN_POINT('',(0.0,0.0,0.0));
#43=DIRECTION('',(0.0,0.0,1.0));
#44=DIRECTION('',(1.0,0.0,0.0));
#45= (NAMED_UNIT(#31)LENGTH_UNIT()SI_UNIT(.MILLI.,.METRE.));
#46=ADVANCED_FACE('\X2\96F64EF651E04F554F53\X0\',(#87),#88,.F.);
#47=ADVANCED_FACE('\X2\96F64EF651E04F554F53\X0\',(#89),#90,.T.);
#48=ADVANCED_FACE('\X2\96F64EF651E04F554F53\X0\',(#91),#92,.T.);
#49=ADVANCED_FACE('\X2\96F64EF651E04F554F53\X0\',(#93),#94,.T.);
#50=ADVANCED_FACE('\X2\96F64EF651E04F554F53\X0\',(#95),#96,.T.);
#51=ADVANCED_FACE('\X2\96F64EF651E04F554F53\X0\',(#97,#98,#99),#100,.F.);
#52=ADVANCED_FACE('\X2\96F64EF651E04F554F53\X0\',(#101),#102,.T.);
#53=ADVANCED_FACE('\X2\96F64EF651E04F554F53\X0\',(#103),#104,.F.);
#54=ADVANCED_FACE('\X2\96F64EF651E04F554F53\X0\',(#105),#106,.F.);
#55=ADVANCED_FACE('\X2\96F64EF651E04F554F53\X0\',(#107),#108,.F.);
#56=ADVANCED_FACE('\X2\96F64EF651E04F554F53\X0\',(#109),#110,.F.);
#57=ADVANCED_FACE('\X2\96F64EF651E04F554F53\X0\',(#111,#112),#113,.F.);
#58=ADVANCED_FACE('\X2\96F64EF651E04F554F53\X0\',(#114),#115,.T.);
#59=ADVANCED_FACE('\X2\96F64EF651E04F554F53\X0\',(#116,#117),#118,.F.);
#60=ADVANCED_FACE('\X2\96F64EF651E04F554F53\X0\',(#119,#120),#121,.F.);
#61=ADVANCED_FACE('\X2\96F64EF651E04F554F53\X0\',(#122),#123,.F.);
#62=ADVANCED_FACE('\X2\96F64EF651E04F554F53\X0\',(#124),#125,.F.);
#63=ADVANCED_FACE('\X2\96F64EF651E04F554F53\X0\',(#126),#127,.F.);
#64=ADVANCED_FACE('\X2\96F64EF651E04F554F53\X0\',(#128),#129,.F.);
#65=ADVANCED_FACE('\X2\96F64EF651E04F554F53\X0\',(#130),#131,.F.);
#66=ADVANCED_FACE('\X2\96F64EF651E04F554F53\X0\',(#132),#133,.F.);
#67=ADVANCED_FACE('\X2\96F64EF651E04F554F53\X0\',(#134),#135,.F.);
#68=ADVANCED_FACE('\X2\96F64EF651E04F554F53\X0\',(#136),#137,.F.);
#69=ADVANCED_FACE('\X2\96F64EF651E04F554F53\X0\',(#138),#139,.F.);
#70=ADVANCED_FACE('\X2\96F64EF651E04F554F53\X0\',(#140),#141,.F.);
#71=ADVANCED_FACE('\X2\96F64EF651E04F554F53\X0\',(#142,#143),#144,.F.);
#72=ADVANCED_FACE('\X2\96F64EF651E04F554F53\X0\',(#145,#146),#147,.F.);
#73=ADVANCED_FACE('\X2\96F64EF651E04F554F53\X0\',(#148),#149,.F.);
#74=ADVANCED_FACE('\X2\96F64EF651E04F554F53\X0\',(#150),#151,.T.);
#75=ADVANCED_FACE('\X2\96F64EF651E04F554F53\X0\',(#152),#153,.T.);
#76=ADVANCED_FACE('\X2\96F64EF651E04F554F53\X0\',(#154),#155,.F.);
#77=ADVANCED_FACE('\X2\96F64EF651E04F554F53\X0\',(#156),#157,.T.);
#78=ADVANCED_FACE('\X2\96F64EF651E04F554F53\X0\',(#158),#159,.T.);
#79=ADVANCED_FACE('\X2\96F64EF651E04F554F53\X0\',(#160),#161,.F.);
#80=ADVANCED_FACE('\X2\96F64EF651E04F554F53\X0\',(#162),#163,.F.);
#81=ADVANCED_FACE('\X2\96F64EF651E04F554F53\X0\',(#164),#165,.T.);
#82=ADVANCED_FACE('\X2\96F64EF651E04F554F53\X0\',(#166),#167,.F.);
#83=ADVANCED_FACE('\X2\96F64EF651E04F554F53\X0\',(#168),#169,.T.);
#84=ADVANCED_FACE('\X2\96F64EF651E04F554F53\X0\',(#170,#171,#172),#173,.T.);
#85=ADVANCED_FACE('\X2\96F64EF651E04F554F53\X0\',(#174,#175,#176,#177),#178,.F.);
#87=FACE_OUTER_BOUND('',#179,.T.);
#88=CYLINDRICAL_SURFACE('',#180,12.0);
#89=FACE_OUTER_BOUND('',#181,.T.);
#90=CYLINDRICAL_SURFACE('',#182,83.0);
#91=FACE_OUTER_BOUND('',#183,.T.);
#92=CYLINDRICAL_SURFACE('',#184,20.0);
#93=FACE_OUTER_BOUND('',#185,.T.);
#94=PLANE('',#186);
#95=FACE_OUTER_BOUND('',#187,.T.);
#96=PLANE('',#188);
#97=FACE_OUTER_BOUND('',#189,.T.);
#98=FACE_BOUND('',#190,.T.);
#99=FACE_BOUND('',#191,.T.);
#100=PLANE('',#192);
#101=FACE_OUTER_BOUND('',#193,.T.);
#102=PLANE('',#194);
#103=FACE_OUTER_BOUND('',#195,.T.);
#104=CYLINDRICAL_SURFACE('',#196,10.0);
#105=FACE_OUTER_BOUND('',#197,.T.);
#106=CYLINDRICAL_SURFACE('',#198,10.0);
#107=FACE_OUTER_BOUND('',#199,.T.);
#108=CYLINDRICAL_SURFACE('',#200,10.0);
#109=FACE_OUTER_BOUND('',#201,.T.);
#110=CYLINDRICAL_SURFACE('',#202,10.0);
#111=FACE_OUTER_BOUND('',#203,.T.);
#112=FACE_BOUND('',#204,.T.);
#113=PLANE('',#205);
#114=FACE_OUTER_BOUND('',#206,.T.);
#115=CYLINDRICAL_SURFACE('',#207,15.0);
#116=FACE_OUTER_BOUND('',#208,.T.);
#117=FACE_BOUND('',#209,.T.);
#118=PLANE('',#210);
#119=FACE_OUTER_BOUND('',#211,.T.);
#120=FACE_BOUND('',#212,.T.);
#121=PLANE('',#213);
#122=FACE_OUTER_BOUND('',#214,.T.);
#123=PLANE('',#215);
#124=FACE_OUTER_BOUND('',#216,.T.);
#125=CYLINDRICAL_SURFACE('',#217,4.0);
#126=FACE_OUTER_BOUND('',#218,.T.);
#127=CYLINDRICAL_SURFACE('',#219,4.0);
#128=FACE_OUTER_BOUND('',#220,.T.);
#129=CYLINDRICAL_SURFACE('',#221,4.0);
#130=FACE_OUTER_BOUND('',#222,.T.);
#131=CYLINDRICAL_SURFACE('',#223,4.0);
#132=FACE_OUTER_BOUND('',#224,.T.);
#133=PLANE('',#225);
#134=FACE_OUTER_BOUND('',#226,.T.);
#135=CYLINDRICAL_SURFACE('',#227,8.0);
#136=FACE_OUTER_BOUND('',#228,.T.);
#137=CYLINDRICAL_SURFACE('',#229,8.0);
#138=FACE_OUTER_BOUND('',#230,.T.);
#139=CYLINDRICAL_SURFACE('',#231,8.0);
#140=FACE_OUTER_BOUND('',#232,.T.);
#141=CYLINDRICAL_SURFACE('',#233,8.0);
#142=FACE_OUTER_BOUND('',#234,.T.);
#143=FACE_BOUND('',#235,.T.);
#144=PLANE('',#236);
#145=FACE_OUTER_BOUND('',#237,.T.);
#146=FACE_BOUND('',#238,.T.);
#147=PLANE('',#239);
#148=FACE_OUTER_BOUND('',#240,.T.);
#149=PLANE('',#241);
#150=FACE_OUTER_BOUND('',#242,.T.);
#151=PLANE('',#243);
#152=FACE_OUTER_BOUND('',#244,.T.);
#153=PLANE('',#245);
#154=FACE_OUTER_BOUND('',#246,.T.);
#155=CYLINDRICAL_SURFACE('',#247,53.0);
#156=FACE_OUTER_BOUND('',#248,.T.);
#157=CYLINDRICAL_SURFACE('',#249,20.0);
#158=FACE_OUTER_BOUND('',#250,.T.);
#159=CYLINDRICAL_SURFACE('',#251,15.0);
#160=FACE_OUTER_BOUND('',#252,.T.);
#161=CYLINDRICAL_SURFACE('',#253,75.0);
#162=FACE_OUTER_BOUND('',#254,.T.);
#163=CYLINDRICAL_SURFACE('',#255,7.0);
#164=FACE_OUTER_BOUND('',#256,.T.);
#165=CYLINDRICAL_SURFACE('',#257,61.0);
#166=FACE_OUTER_BOUND('',#258,.T.);
#167=CYLINDRICAL_SURFACE('',#259,7.0);
#168=FACE_OUTER_BOUND('',#260,.T.);
#169=PLANE('',#261);
#170=FACE_OUTER_BOUND('',#262,.T.);
#171=FACE_BOUND('',#263,.T.);
#172=FACE_BOUND('',#264,.T.);
#173=PLANE('',#265);
#174=FACE_OUTER_BOUND('',#266,.T.);
#175=FACE_BOUND('',#267,.T.);
#176=FACE_BOUND('',#268,.T.);
#177=FACE_BOUND('',#269,.T.);
#178=PLANE('',#270);
#179=EDGE_LOOP('',(#271,#272,#273,#274));
#180=AXIS2_PLACEMENT_3D('',#275,#276,#277);
#181=EDGE_LOOP('',(#278,#279,#280,#281,#282,#283,#284,#285,#286));
#182=AXIS2_PLACEMENT_3D('',#287,#288,#289);
#183=EDGE_LOOP('',(#290,#291,#292,#293));
#184=AXIS2_PLACEMENT_3D('',#294,#295,#296);
#185=EDGE_LOOP('',(#297,#298,#299,#300,#301,#302));
#186=AXIS2_PLACEMENT_3D('',#303,#304,#305);
#187=EDGE_LOOP('',(#306,#307,#308,#309));
#188=AXIS2_PLACEMENT_3D('',#310,#311,#312);
#189=EDGE_LOOP('',(#313,#314,#315,#316));
#190=EDGE_LOOP('',(#317,#318));
#191=EDGE_LOOP('',(#319,#320));
#192=AXIS2_PLACEMENT_3D('',#321,#322,#323);
#193=EDGE_LOOP('',(#324,#325,#326,#327));
#194=AXIS2_PLACEMENT_3D('',#328,#329,#330);
#195=EDGE_LOOP('',(#331,#332,#333,#334));
#196=AXIS2_PLACEMENT_3D('',#335,#336,#337);
#197=EDGE_LOOP('',(#338,#339,#340,#341));
#198=AXIS2_PLACEMENT_3D('',#342,#343,#344);
#199=EDGE_LOOP('',(#345,#346,#347,#348));
#200=AXIS2_PLACEMENT_3D('',#349,#350,#351);
#201=EDGE_LOOP('',(#352,#353,#354,#355));
#202=AXIS2_PLACEMENT_3D('',#356,#357,#358);
#203=EDGE_LOOP('',(#359,#360,#361,#362,#363,#364,#365,#366,#367,#368,#369,#370,#371,#372,#373,#374,#375));
#204=EDGE_LOOP('',(#376,#377));
#205=AXIS2_PLACEMENT_3D('',#378,#379,#380);
#206=EDGE_LOOP('',(#381,#382,#383,#384));
#207=AXIS2_PLACEMENT_3D('',#385,#386,#387);
#208=EDGE_LOOP('',(#388,#389,#390,#391));
#209=EDGE_LOOP('',(#392,#393,#394,#395));
#210=AXIS2_PLACEMENT_3D('',#396,#397,#398);
#211=EDGE_LOOP('',(#399,#400,#401,#402));
#212=EDGE_LOOP('',(#403,#404));
#213=AXIS2_PLACEMENT_3D('',#405,#406,#407);
#214=EDGE_LOOP('',(#408,#409,#410,#411));
#215=AXIS2_PLACEMENT_3D('',#412,#413,#414);
#216=EDGE_LOOP('',(#415,#416,#417,#418));
#217=AXIS2_PLACEMENT_3D('',#419,#420,#421);
#218=EDGE_LOOP('',(#422,#423,#424,#425));
#219=AXIS2_PLACEMENT_3D('',#426,#427,#428);
#220=EDGE_LOOP('',(#429,#430,#431,#432));
#221=AXIS2_PLACEMENT_3D('',#433,#434,#435);
#222=EDGE_LOOP('',(#436,#437,#438,#439));
#223=AXIS2_PLACEMENT_3D('',#440,#441,#442);
#224=EDGE_LOOP('',(#443,#444,#445));
#225=AXIS2_PLACEMENT_3D('',#446,#447,#448);
#226=EDGE_LOOP('',(#449,#450,#451,#452));
#227=AXIS2_PLACEMENT_3D('',#453,#454,#455);
#228=EDGE_LOOP('',(#456,#457,#458,#459));
#229=AXIS2_PLACEMENT_3D('',#460,#461,#462);
#230=EDGE_LOOP('',(#463,#464,#465,#466));
#231=AXIS2_PLACEMENT_3D('',#467,#468,#469);
#232=EDGE_LOOP('',(#470,#471,#472,#473));
#233=AXIS2_PLACEMENT_3D('',#474,#475,#476);
#234=EDGE_LOOP('',(#477,#478));
#235=EDGE_LOOP('',(#479,#480));
#236=AXIS2_PLACEMENT_3D('',#481,#482,#483);
#237=EDGE_LOOP('',(#484,#485));
#238=EDGE_LOOP('',(#486,#487));
#239=AXIS2_PLACEMENT_3D('',#488,#489,#490);
#240=EDGE_LOOP('',(#491,#492,#493,#494));
#241=AXIS2_PLACEMENT_3D('',#495,#496,#497);
#242=EDGE_LOOP('',(#498,#499,#500));
#243=AXIS2_PLACEMENT_3D('',#501,#502,#503);
#244=EDGE_LOOP('',(#504,#505,#506,#507));
#245=AXIS2_PLACEMENT_3D('',#508,#509,#510);
#246=EDGE_LOOP('',(#511,#512,#513,#514));
#247=AXIS2_PLACEMENT_3D('',#515,#516,#517);
#248=EDGE_LOOP('',(#518,#519,#520,#521,#522,#523,#524,#525));
#249=AXIS2_PLACEMENT_3D('',#526,#527,#528);
#250=EDGE_LOOP('',(#529,#530,#531,#532));
#251=AXIS2_PLACEMENT_3D('',#533,#534,#535);
#252=EDGE_LOOP('',(#536,#537,#538,#539));
#253=AXIS2_PLACEMENT_3D('',#540,#541,#542);
#254=EDGE_LOOP('',(#543,#544,#545,#546));
#255=AXIS2_PLACEMENT_3D('',#547,#548,#549);
#256=EDGE_LOOP('',(#550,#551,#552,#553));
#257=AXIS2_PLACEMENT_3D('',#554,#555,#556);
#258=EDGE_LOOP('',(#557,#558,#559,#560));
#259=AXIS2_PLACEMENT_3D('',#561,#562,#563);
#260=EDGE_LOOP('',(#564,#565,#566,#567,#568,#569));
#261=AXIS2_PLACEMENT_3D('',#570,#571,#572);
#262=EDGE_LOOP('',(#573,#574,#575,#576,#577,#578,#579,#580));
#263=EDGE_LOOP('',(#581,#582));
#264=EDGE_LOOP('',(#583,#584));
#265=AXIS2_PLACEMENT_3D('',#585,#586,#587);
#266=EDGE_LOOP('',(#588,#589,#590,#591,#592,#593,#594,#595,#596,#597));
#267=EDGE_LOOP('',(#598,#599,#600,#601));
#268=EDGE_LOOP('',(#602,#603));
#269=EDGE_LOOP('',(#604,#605));
#270=AXIS2_PLACEMENT_3D('',#606,#607,#608);
#271=ORIENTED_EDGE('',*,*,#609,.T.);
#272=ORIENTED_EDGE('',*,*,#610,.F.);
#273=ORIENTED_EDGE('',*,*,#611,.F.);
#274=ORIENTED_EDGE('',*,*,#612,.T.);
#275=CARTESIAN_POINT('',(125.102777322,-6.0,50.8910787137));
#276=DIRECTION('',(0.0,-1.0,-0.0));
#277=DIRECTION('',(-0.50000000000019,0.0,-0.866025403784329));
#278=ORIENTED_EDGE('',*,*,#613,.F.);
#279=ORIENTED_EDGE('',*,*,#614,.T.);
#280=ORIENTED_EDGE('',*,*,#615,.T.);
#281=ORIENTED_EDGE('',*,*,#616,.T.);
#282=ORIENTED_EDGE('',*,*,#617,.T.);
#283=ORIENTED_EDGE('',*,*,#618,.F.);
#284=ORIENTED_EDGE('',*,*,#619,.T.);
#285=ORIENTED_EDGE('',*,*,#612,.F.);
#286=ORIENTED_EDGE('',*,*,#620,.F.);
#287=CARTESIAN_POINT('',(32.0,-6.0,32.0));
#288=DIRECTION('',(0.0,-1.0,0.0));
#289=DIRECTION('',(6.84860468203E-16,0.0,1.0));
#290=ORIENTED_EDGE('',*,*,#621,.T.);
#291=ORIENTED_EDGE('',*,*,#614,.F.);
#292=ORIENTED_EDGE('',*,*,#622,.F.);
#293=ORIENTED_EDGE('',*,*,#623,.T.);
#294=CARTESIAN_POINT('',(32.0,-6.0,95.0));
#295=DIRECTION('',(0.0,-1.0,-0.0));
#296=DIRECTION('',(-1.0,0.0,-1.83697019872E-16));
#297=ORIENTED_EDGE('',*,*,#624,.T.);
#298=ORIENTED_EDGE('',*,*,#625,.F.);
#299=ORIENTED_EDGE('',*,*,#626,.T.);
#300=ORIENTED_EDGE('',*,*,#623,.F.);
#301=ORIENTED_EDGE('',*,*,#627,.F.);
#302=ORIENTED_EDGE('',*,*,#628,.T.);
#303=CARTESIAN_POINT('',(12.0,0.0,95.0));
#304=DIRECTION('',(-1.0,0.0,6.4205668894E-17));
#305=DIRECTION('',(0.0,1.0,0.0));
#306=ORIENTED_EDGE('',*,*,#629,.F.);
#307=ORIENTED_EDGE('',*,*,#630,.T.);
#308=ORIENTED_EDGE('',*,*,#631,.T.);
#309=ORIENTED_EDGE('',*,*,#632,.F.);
#310=CARTESIAN_POINT('',(0.0,0.0,0.0));
#311=DIRECTION('',(-1.0,0.0,0.0));
#312=DIRECTION('',(0.0,0.0,1.0));
#313=ORIENTED_EDGE('',*,*,#633,.F.);
#314=ORIENTED_EDGE('',*,*,#634,.F.);
#315=ORIENTED_EDGE('',*,*,#630,.F.);
#316=ORIENTED_EDGE('',*,*,#635,.F.);
#317=ORIENTED_EDGE('',*,*,#636,.T.);
#318=ORIENTED_EDGE('',*,*,#637,.T.);
#319=ORIENTED_EDGE('',*,*,#638,.T.);
#320=ORIENTED_EDGE('',*,*,#639,.T.);
#321=CARTESIAN_POINT('',(0.0,0.0,0.0));
#322=DIRECTION('',(0.0,0.0,1.0));
#323=DIRECTION('',(1.0,0.0,0.0));
#324=ORIENTED_EDGE('',*,*,#640,.T.);
#325=ORIENTED_EDGE('',*,*,#641,.F.);
#326=ORIENTED_EDGE('',*,*,#642,.F.);
#327=ORIENTED_EDGE('',*,*,#610,.T.);
#328=CARTESIAN_POINT('',(165.0,0.0,14.0));
#329=DIRECTION('',(0.50000000000019,0.0,0.866025403784329));
#330=DIRECTION('',(0.0,-1.0,0.0));
#331=ORIENTED_EDGE('',*,*,#643,.F.);
#332=ORIENTED_EDGE('',*,*,#644,.F.);
#333=ORIENTED_EDGE('',*,*,#645,.T.);
#334=ORIENTED_EDGE('',*,*,#646,.F.);
#335=CARTESIAN_POINT('',(32.0,-11.9,95.0));
#336=DIRECTION('',(0.0,-1.0,0.0));
#337=DIRECTION('',(0.877582561890372,0.0,-0.479425538604204));
#338=ORIENTED_EDGE('',*,*,#643,.T.);
#339=ORIENTED_EDGE('',*,*,#647,.F.);
#340=ORIENTED_EDGE('',*,*,#645,.F.);
#341=ORIENTED_EDGE('',*,*,#648,.F.);
#342=CARTESIAN_POINT('',(32.0,-11.9,95.0));
#343=DIRECTION('',(0.0,-1.0,0.0));
#344=DIRECTION('',(0.877582561890372,0.0,-0.479425538604204));
#345=ORIENTED_EDGE('',*,*,#649,.T.);
#346=ORIENTED_EDGE('',*,*,#650,.F.);
#347=ORIENTED_EDGE('',*,*,#651,.F.);
#348=ORIENTED_EDGE('',*,*,#652,.F.);
#349=CARTESIAN_POINT('',(32.0,-39.9,32.0));
#350=DIRECTION('',(0.0,-1.0,0.0));
#351=DIRECTION('',(0.877582561890372,0.0,-0.479425538604204));
#352=ORIENTED_EDGE('',*,*,#651,.T.);
#353=ORIENTED_EDGE('',*,*,#653,.F.);
#354=ORIENTED_EDGE('',*,*,#649,.F.);
#355=ORIENTED_EDGE('',*,*,#654,.F.);
#356=CARTESIAN_POINT('',(32.0,-39.9,32.0));
#357=DIRECTION('',(0.0,-1.0,0.0));
#358=DIRECTION('',(0.877582561890372,0.0,-0.479425538604204));
#359=ORIENTED_EDGE('',*,*,#655,.T.);
#360=ORIENTED_EDGE('',*,*,#656,.F.);
#361=ORIENTED_EDGE('',*,*,#657,.F.);
#362=ORIENTED_EDGE('',*,*,#658,.T.);
#363=ORIENTED_EDGE('',*,*,#659,.F.);
#364=ORIENTED_EDGE('',*,*,#660,.F.);
#365=ORIENTED_EDGE('',*,*,#661,.F.);
#366=ORIENTED_EDGE('',*,*,#640,.F.);
#367=ORIENTED_EDGE('',*,*,#609,.F.);
#368=ORIENTED_EDGE('',*,*,#619,.F.);
#369=ORIENTED_EDGE('',*,*,#662,.T.);
#370=ORIENTED_EDGE('',*,*,#663,.F.);
#371=ORIENTED_EDGE('',*,*,#664,.T.);
#372=ORIENTED_EDGE('',*,*,#615,.F.);
#373=ORIENTED_EDGE('',*,*,#621,.F.);
#374=ORIENTED_EDGE('',*,*,#626,.F.);
#375=ORIENTED_EDGE('',*,*,#665,.T.);
#376=ORIENTED_EDGE('',*,*,#646,.T.);
#377=ORIENTED_EDGE('',*,*,#647,.T.);
#378=CARTESIAN_POINT('',(0.0,-12.0,0.0));
#379=DIRECTION('',(-0.0,1.0,0.0));
#380=DIRECTION('',(1.0,0.0,0.0));
#381=ORIENTED_EDGE('',*,*,#666,.T.);
#382=ORIENTED_EDGE('',*,*,#667,.T.);
#383=ORIENTED_EDGE('',*,*,#616,.F.);
#384=ORIENTED_EDGE('',*,*,#664,.F.);
#385=CARTESIAN_POINT('',(66.0,-7.5,90.8897274573));
#386=DIRECTION('',(0.0,-1.0,-0.0));
#387=DIRECTION('',(-0.50000000000019,0.0,-0.866025403784329));
#388=ORIENTED_EDGE('',*,*,#617,.F.);
#389=ORIENTED_EDGE('',*,*,#667,.F.);
#390=ORIENTED_EDGE('',*,*,#668,.F.);
#391=ORIENTED_EDGE('',*,*,#669,.F.);
#392=ORIENTED_EDGE('',*,*,#670,.T.);
#393=ORIENTED_EDGE('',*,*,#671,.T.);
#394=ORIENTED_EDGE('',*,*,#672,.T.);
#395=ORIENTED_EDGE('',*,*,#673,.F.);
#396=CARTESIAN_POINT('',(0.0,-15.0,0.0));
#397=DIRECTION('',(-0.0,1.0,0.0));
#398=DIRECTION('',(1.0,0.0,0.0));
#399=ORIENTED_EDGE('',*,*,#674,.F.);
#400=ORIENTED_EDGE('',*,*,#675,.F.);
#401=ORIENTED_EDGE('',*,*,#624,.F.);
#402=ORIENTED_EDGE('',*,*,#676,.F.);
#403=ORIENTED_EDGE('',*,*,#653,.T.);
#404=ORIENTED_EDGE('',*,*,#650,.T.);
#405=CARTESIAN_POINT('',(0.0,-40.0,0.0));
#406=DIRECTION('',(-0.0,1.0,0.0));
#407=DIRECTION('',(1.0,0.0,0.0));
#408=ORIENTED_EDGE('',*,*,#677,.F.);
#409=ORIENTED_EDGE('',*,*,#631,.F.);
#410=ORIENTED_EDGE('',*,*,#634,.T.);
#411=ORIENTED_EDGE('',*,*,#678,.T.);
#412=CARTESIAN_POINT('',(165.0,-45.0,0.0));
#413=DIRECTION('',(-0.0,1.0,0.0));
#414=DIRECTION('',(1.0,0.0,0.0));
#415=ORIENTED_EDGE('',*,*,#637,.F.);
#416=ORIENTED_EDGE('',*,*,#679,.T.);
#417=ORIENTED_EDGE('',*,*,#680,.F.);
#418=ORIENTED_EDGE('',*,*,#681,.F.);
#419=CARTESIAN_POINT('',(150.0,-35.0,11.9));
#420=DIRECTION('',(0.0,0.0,1.0));
#421=DIRECTION('',(0.877582561890372,-0.479425538604204,0.0));
#422=ORIENTED_EDGE('',*,*,#636,.F.);
#423=ORIENTED_EDGE('',*,*,#681,.T.);
#424=ORIENTED_EDGE('',*,*,#682,.F.);
#425=ORIENTED_EDGE('',*,*,#679,.F.);
#426=CARTESIAN_POINT('',(150.0,-35.0,11.9));
#427=DIRECTION('',(0.0,0.0,1.0));
#428=DIRECTION('',(0.877582561890372,-0.479425538604204,0.0));
#429=ORIENTED_EDGE('',*,*,#639,.F.);
#430=ORIENTED_EDGE('',*,*,#683,.T.);
#431=ORIENTED_EDGE('',*,*,#684,.F.);
#432=ORIENTED_EDGE('',*,*,#685,.F.);
#433=CARTESIAN_POINT('',(80.0,-35.0,11.9));
#434=DIRECTION('',(0.0,0.0,1.0));
#435=DIRECTION('',(0.877582561890372,-0.479425538604204,0.0));
#436=ORIENTED_EDGE('',*,*,#638,.F.);
#437=ORIENTED_EDGE('',*,*,#685,.T.);
#438=ORIENTED_EDGE('',*,*,#686,.F.);
#439=ORIENTED_EDGE('',*,*,#683,.F.);
#440=CARTESIAN_POINT('',(80.0,-35.0,11.9));
#441=DIRECTION('',(0.0,0.0,1.0));
#442=DIRECTION('',(0.877582561890372,-0.479425538604204,0.0));
#443=ORIENTED_EDGE('',*,*,#655,.F.);
#444=ORIENTED_EDGE('',*,*,#687,.F.);
#445=ORIENTED_EDGE('',*,*,#688,.F.);
#446=CARTESIAN_POINT('',(26.0,0.0,95.0));
#447=DIRECTION('',(1.0,0.0,2.81961403079E-16));
#448=DIRECTION('',(-2.81961403079E-16,0.0,1.0));
#449=ORIENTED_EDGE('',*,*,#689,.T.);
#450=ORIENTED_EDGE('',*,*,#690,.F.);
#451=ORIENTED_EDGE('',*,*,#691,.T.);
#452=ORIENTED_EDGE('',*,*,#692,.T.);
#453=CARTESIAN_POINT('',(80.0,-35.0,11.9));
#454=DIRECTION('',(0.0,0.0,1.0));
#455=DIRECTION('',(0.877582561890372,-0.479425538604204,0.0));
#456=ORIENTED_EDGE('',*,*,#693,.T.);
#457=ORIENTED_EDGE('',*,*,#692,.F.);
#458=ORIENTED_EDGE('',*,*,#694,.T.);
#459=ORIENTED_EDGE('',*,*,#690,.T.);
#460=CARTESIAN_POINT('',(80.0,-35.0,11.9));
#461=DIRECTION('',(0.0,0.0,1.0));
#462=DIRECTION('',(0.877582561890372,-0.479425538604204,0.0));
#463=ORIENTED_EDGE('',*,*,#695,.T.);
#464=ORIENTED_EDGE('',*,*,#696,.F.);
#465=ORIENTED_EDGE('',*,*,#697,.T.);
#466=ORIENTED_EDGE('',*,*,#698,.T.);
#467=CARTESIAN_POINT('',(150.0,-35.0,11.9));
#468=DIRECTION('',(0.0,0.0,1.0));
#469=DIRECTION('',(0.877582561890372,-0.479425538604204,0.0));
#470=ORIENTED_EDGE('',*,*,#699,.T.);
#471=ORIENTED_EDGE('',*,*,#698,.F.);
#472=ORIENTED_EDGE('',*,*,#700,.T.);
#473=ORIENTED_EDGE('',*,*,#696,.T.);
#474=CARTESIAN_POINT('',(150.0,-35.0,11.9));
#475=DIRECTION('',(0.0,0.0,1.0));
#476=DIRECTION('',(0.877582561890372,-0.479425538604204,0.0));
#477=ORIENTED_EDGE('',*,*,#694,.F.);
#478=ORIENTED_EDGE('',*,*,#691,.F.);
#479=ORIENTED_EDGE('',*,*,#686,.T.);
#480=ORIENTED_EDGE('',*,*,#684,.T.);
#481=CARTESIAN_POINT('',(84.0,-35.0,7.0));
#482=DIRECTION('',(0.0,0.0,-1.0));
#483=DIRECTION('',(0.0,-1.0,0.0));
#484=ORIENTED_EDGE('',*,*,#700,.F.);
#485=ORIENTED_EDGE('',*,*,#697,.F.);
#486=ORIENTED_EDGE('',*,*,#682,.T.);
#487=ORIENTED_EDGE('',*,*,#680,.T.);
#488=CARTESIAN_POINT('',(84.0,-35.0,7.0));
#489=DIRECTION('',(0.0,0.0,-1.0));
#490=DIRECTION('',(0.0,-1.0,0.0));
#491=ORIENTED_EDGE('',*,*,#701,.F.);
#492=ORIENTED_EDGE('',*,*,#702,.F.);
#493=ORIENTED_EDGE('',*,*,#656,.T.);
#494=ORIENTED_EDGE('',*,*,#688,.T.);
#495=CARTESIAN_POINT('',(32.0,-15.0,72.0));
#496=DIRECTION('',(2.04178947058042E-16,0.689655172414143,-0.72413793103415));
#497=DIRECTION('',(-1.0,1.66028443481742E-32,-2.81961403080283E-16));
#498=ORIENTED_EDGE('',*,*,#702,.T.);
#499=ORIENTED_EDGE('',*,*,#703,.T.);
#500=ORIENTED_EDGE('',*,*,#657,.T.);
#501=CARTESIAN_POINT('',(38.0,0.0,95.0));
#502=DIRECTION('',(1.0,0.0,2.81961403079E-16));
#503=DIRECTION('',(-2.81961403079E-16,0.0,1.0));
#504=ORIENTED_EDGE('',*,*,#704,.T.);
#505=ORIENTED_EDGE('',*,*,#674,.T.);
#506=ORIENTED_EDGE('',*,*,#705,.F.);
#507=ORIENTED_EDGE('',*,*,#659,.T.);
#508=CARTESIAN_POINT('',(52.0,0.0,12.0));
#509=DIRECTION('',(1.0,0.0,0.0));
#510=DIRECTION('',(0.0,1.0,0.0));
#511=ORIENTED_EDGE('',*,*,#663,.T.);
#512=ORIENTED_EDGE('',*,*,#706,.T.);
#513=ORIENTED_EDGE('',*,*,#668,.T.);
#514=ORIENTED_EDGE('',*,*,#666,.F.);
#515=CARTESIAN_POINT('',(32.0,-7.5,32.0));
#516=DIRECTION('',(0.0,-1.0,0.0));
#517=DIRECTION('',(0.50000000000019,0.0,0.866025403784329));
#518=ORIENTED_EDGE('',*,*,#665,.F.);
#519=ORIENTED_EDGE('',*,*,#625,.T.);
#520=ORIENTED_EDGE('',*,*,#675,.T.);
#521=ORIENTED_EDGE('',*,*,#704,.F.);
#522=ORIENTED_EDGE('',*,*,#658,.F.);
#523=ORIENTED_EDGE('',*,*,#703,.F.);
#524=ORIENTED_EDGE('',*,*,#701,.T.);
#525=ORIENTED_EDGE('',*,*,#687,.T.);
#526=CARTESIAN_POINT('',(32.0,-20.0,32.0));
#527=DIRECTION('',(0.0,-1.0,-0.0));
#528=DIRECTION('',(-1.0,0.0,-1.83697019872E-16));
#529=ORIENTED_EDGE('',*,*,#618,.T.);
#530=ORIENTED_EDGE('',*,*,#669,.T.);
#531=ORIENTED_EDGE('',*,*,#706,.F.);
#532=ORIENTED_EDGE('',*,*,#662,.F.);
#533=CARTESIAN_POINT('',(97.6829561877,-7.5,49.599695067));
#534=DIRECTION('',(0.0,-1.0,0.0));
#535=DIRECTION('',(0.965925826288944,0.0,0.258819045102985));
#536=ORIENTED_EDGE('',*,*,#671,.F.);
#537=ORIENTED_EDGE('',*,*,#707,.F.);
#538=ORIENTED_EDGE('',*,*,#708,.T.);
#539=ORIENTED_EDGE('',*,*,#709,.T.);
#540=CARTESIAN_POINT('',(32.0,-23.1600000002,32.0));
#541=DIRECTION('',(0.0,-1.0,0.0));
#542=DIRECTION('',(0.50000000000019,0.0,0.866025403784329));
#543=ORIENTED_EDGE('',*,*,#670,.F.);
#544=ORIENTED_EDGE('',*,*,#710,.F.);
#545=ORIENTED_EDGE('',*,*,#711,.T.);
#546=ORIENTED_EDGE('',*,*,#707,.T.);
#547=CARTESIAN_POINT('',(66.0,-23.1600000002,90.8897274573));
#548=DIRECTION('',(0.0,-1.0,-0.0));
#549=DIRECTION('',(-0.50000000000019,0.0,-0.866025403784329));
#550=ORIENTED_EDGE('',*,*,#712,.F.);
#551=ORIENTED_EDGE('',*,*,#713,.T.);
#552=ORIENTED_EDGE('',*,*,#710,.T.);
#553=ORIENTED_EDGE('',*,*,#673,.T.);
#554=CARTESIAN_POINT('',(32.0,-23.1600000002,32.0));
#555=DIRECTION('',(0.0,-1.0,0.0));
#556=DIRECTION('',(0.50000000000019,0.0,0.866025403784329));
#557=ORIENTED_EDGE('',*,*,#672,.F.);
#558=ORIENTED_EDGE('',*,*,#709,.F.);
#559=ORIENTED_EDGE('',*,*,#714,.T.);
#560=ORIENTED_EDGE('',*,*,#712,.T.);
#561=CARTESIAN_POINT('',(97.6829561877,-23.1600000002,49.599695067));
#562=DIRECTION('',(0.0,-1.0,0.0));
#563=DIRECTION('',(0.965925826288944,0.0,0.258819045102985));
#564=ORIENTED_EDGE('',*,*,#661,.T.);
#565=ORIENTED_EDGE('',*,*,#715,.F.);
#566=ORIENTED_EDGE('',*,*,#678,.F.);
#567=ORIENTED_EDGE('',*,*,#633,.T.);
#568=ORIENTED_EDGE('',*,*,#716,.T.);
#569=ORIENTED_EDGE('',*,*,#641,.T.);
#570=CARTESIAN_POINT('',(165.0,-45.0,0.0));
#571=DIRECTION('',(1.0,0.0,0.0));
#572=DIRECTION('',(0.0,1.0,0.0));
#573=ORIENTED_EDGE('',*,*,#676,.T.);
#574=ORIENTED_EDGE('',*,*,#628,.F.);
#575=ORIENTED_EDGE('',*,*,#717,.T.);
#576=ORIENTED_EDGE('',*,*,#632,.T.);
#577=ORIENTED_EDGE('',*,*,#677,.T.);
#578=ORIENTED_EDGE('',*,*,#715,.T.);
#579=ORIENTED_EDGE('',*,*,#660,.T.);
#580=ORIENTED_EDGE('',*,*,#705,.T.);
#581=ORIENTED_EDGE('',*,*,#699,.F.);
#582=ORIENTED_EDGE('',*,*,#695,.F.);
#583=ORIENTED_EDGE('',*,*,#693,.F.);
#584=ORIENTED_EDGE('',*,*,#689,.F.);
#585=CARTESIAN_POINT('',(0.0,0.0,12.0));
#586=DIRECTION('',(0.0,0.0,1.0));
#587=DIRECTION('',(1.0,0.0,0.0));
#588=ORIENTED_EDGE('',*,*,#642,.T.);
#589=ORIENTED_EDGE('',*,*,#716,.F.);
#590=ORIENTED_EDGE('',*,*,#635,.T.);
#591=ORIENTED_EDGE('',*,*,#629,.T.);
#592=ORIENTED_EDGE('',*,*,#717,.F.);
#593=ORIENTED_EDGE('',*,*,#627,.T.);
#594=ORIENTED_EDGE('',*,*,#622,.T.);
#595=ORIENTED_EDGE('',*,*,#613,.T.);
#596=ORIENTED_EDGE('',*,*,#620,.T.);
#597=ORIENTED_EDGE('',*,*,#611,.T.);
#598=ORIENTED_EDGE('',*,*,#708,.F.);
#599=ORIENTED_EDGE('',*,*,#711,.F.);
#600=ORIENTED_EDGE('',*,*,#713,.F.);
#601=ORIENTED_EDGE('',*,*,#714,.F.);
#602=ORIENTED_EDGE('',*,*,#648,.T.);
#603=ORIENTED_EDGE('',*,*,#644,.T.);
#604=ORIENTED_EDGE('',*,*,#654,.T.);
#605=ORIENTED_EDGE('',*,*,#652,.T.);
#606=CARTESIAN_POINT('',(0.0,0.0,0.0));
#607=DIRECTION('',(0.0,-1.0,0.0));
#608=DIRECTION('',(0.0,0.0,-1.0));
#609=EDGE_CURVE('',#718,#719,#720,.F.);
#610=EDGE_CURVE('',#721,#719,#722,.F.);
#611=EDGE_CURVE('',#723,#721,#724,.F.);
#612=EDGE_CURVE('',#723,#718,#725,.F.);
#613=EDGE_CURVE('',#726,#727,#728,.T.);
#614=EDGE_CURVE('',#726,#729,#730,.F.);
#615=EDGE_CURVE('',#729,#731,#732,.T.);
#616=EDGE_CURVE('',#731,#733,#734,.F.);
#617=EDGE_CURVE('',#733,#735,#736,.T.);
#618=EDGE_CURVE('',#737,#735,#738,.F.);
#619=EDGE_CURVE('',#737,#718,#739,.T.);
#620=EDGE_CURVE('',#727,#723,#740,.T.);
#621=EDGE_CURVE('',#741,#729,#742,.T.);
#622=EDGE_CURVE('',#743,#726,#744,.T.);
#623=EDGE_CURVE('',#743,#741,#745,.F.);
#624=EDGE_CURVE('',#746,#747,#748,.F.);
#625=EDGE_CURVE('',#749,#747,#750,.T.);
#626=EDGE_CURVE('',#749,#741,#751,.F.);
#627=EDGE_CURVE('',#752,#743,#753,.F.);
#628=EDGE_CURVE('',#752,#746,#754,.T.);
#629=EDGE_CURVE('',#755,#756,#757,.T.);
#630=EDGE_CURVE('',#755,#758,#759,.T.);
#631=EDGE_CURVE('',#758,#760,#761,.T.);
#632=EDGE_CURVE('',#756,#760,#762,.T.);
#633=EDGE_CURVE('',#763,#764,#765,.T.);
#634=EDGE_CURVE('',#758,#763,#766,.F.);
#635=EDGE_CURVE('',#764,#755,#767,.F.);
#636=EDGE_CURVE('',#768,#769,#770,.T.);
#637=EDGE_CURVE('',#769,#768,#771,.T.);
#638=EDGE_CURVE('',#772,#773,#774,.T.);
#639=EDGE_CURVE('',#773,#772,#775,.T.);
#640=EDGE_CURVE('',#719,#776,#777,.F.);
#641=EDGE_CURVE('',#778,#776,#779,.T.);
#642=EDGE_CURVE('',#721,#778,#780,.F.);
#643=EDGE_CURVE('',#781,#782,#783,.F.);
#644=EDGE_CURVE('',#784,#781,#785,.F.);
#645=EDGE_CURVE('',#784,#786,#787,.F.);
#646=EDGE_CURVE('',#782,#786,#788,.T.);
#647=EDGE_CURVE('',#786,#782,#789,.T.);
#648=EDGE_CURVE('',#781,#784,#790,.F.);
#649=EDGE_CURVE('',#791,#792,#793,.F.);
#650=EDGE_CURVE('',#794,#792,#795,.T.);
#651=EDGE_CURVE('',#796,#794,#797,.F.);
#652=EDGE_CURVE('',#791,#796,#798,.F.);
#653=EDGE_CURVE('',#792,#794,#799,.T.);
#654=EDGE_CURVE('',#796,#791,#800,.F.);
#655=EDGE_CURVE('',#801,#802,#803,.T.);
#656=EDGE_CURVE('',#804,#802,#805,.T.);
#657=EDGE_CURVE('',#806,#804,#807,.T.);
#658=EDGE_CURVE('',#806,#808,#809,.T.);
#659=EDGE_CURVE('',#810,#808,#811,.T.);
#660=EDGE_CURVE('',#812,#810,#813,.F.);
#661=EDGE_CURVE('',#776,#812,#814,.F.);
#662=EDGE_CURVE('',#737,#815,#816,.T.);
#663=EDGE_CURVE('',#817,#815,#818,.T.);
#664=EDGE_CURVE('',#817,#731,#819,.T.);
#665=EDGE_CURVE('',#749,#801,#820,.T.);
#666=EDGE_CURVE('',#817,#821,#822,.F.);
#667=EDGE_CURVE('',#821,#733,#823,.T.);
#668=EDGE_CURVE('',#824,#821,#825,.F.);
#669=EDGE_CURVE('',#735,#824,#826,.T.);
#670=EDGE_CURVE('',#827,#828,#829,.T.);
#671=EDGE_CURVE('',#828,#830,#831,.T.);
#672=EDGE_CURVE('',#830,#832,#833,.T.);
#673=EDGE_CURVE('',#827,#832,#834,.T.);
#674=EDGE_CURVE('',#835,#836,#837,.F.);
#675=EDGE_CURVE('',#747,#835,#838,.T.);
#676=EDGE_CURVE('',#836,#746,#839,.T.);
#677=EDGE_CURVE('',#760,#840,#841,.F.);
#678=EDGE_CURVE('',#763,#840,#842,.T.);
#679=EDGE_CURVE('',#769,#843,#844,.F.);
#680=EDGE_CURVE('',#845,#843,#846,.T.);
#681=EDGE_CURVE('',#768,#845,#847,.F.);
#682=EDGE_CURVE('',#843,#845,#848,.T.);
#683=EDGE_CURVE('',#773,#849,#850,.F.);
#684=EDGE_CURVE('',#851,#849,#852,.T.);
#685=EDGE_CURVE('',#772,#851,#853,.F.);
#686=EDGE_CURVE('',#849,#851,#854,.T.);
#687=EDGE_CURVE('',#855,#801,#856,.T.);
#688=EDGE_CURVE('',#802,#855,#857,.F.);
#689=EDGE_CURVE('',#858,#859,#860,.F.);
#690=EDGE_CURVE('',#861,#859,#862,.F.);
#691=EDGE_CURVE('',#861,#863,#864,.T.);
#692=EDGE_CURVE('',#863,#858,#865,.F.);
#693=EDGE_CURVE('',#859,#858,#866,.F.);
#694=EDGE_CURVE('',#863,#861,#867,.T.);
#695=EDGE_CURVE('',#868,#869,#870,.F.);
#696=EDGE_CURVE('',#871,#869,#872,.F.);
#697=EDGE_CURVE('',#871,#873,#874,.T.);
#698=EDGE_CURVE('',#873,#868,#875,.F.);
#699=EDGE_CURVE('',#869,#868,#876,.F.);
#700=EDGE_CURVE('',#873,#871,#877,.T.);
#701=EDGE_CURVE('',#878,#855,#879,.T.);
#702=EDGE_CURVE('',#804,#878,#880,.F.);
#703=EDGE_CURVE('',#878,#806,#881,.T.);
#704=EDGE_CURVE('',#808,#835,#882,.T.);
#705=EDGE_CURVE('',#810,#836,#883,.T.);
#706=EDGE_CURVE('',#815,#824,#884,.F.);
#707=EDGE_CURVE('',#885,#828,#886,.F.);
#708=EDGE_CURVE('',#885,#887,#888,.T.);
#709=EDGE_CURVE('',#887,#830,#889,.F.);
#710=EDGE_CURVE('',#890,#827,#891,.F.);
#711=EDGE_CURVE('',#890,#885,#892,.T.);
#712=EDGE_CURVE('',#893,#832,#894,.F.);
#713=EDGE_CURVE('',#893,#890,#895,.F.);
#714=EDGE_CURVE('',#887,#893,#896,.T.);
#715=EDGE_CURVE('',#840,#812,#897,.T.);
#716=EDGE_CURVE('',#764,#778,#898,.T.);
#717=EDGE_CURVE('',#752,#756,#899,.F.);
#718=VERTEX_POINT('',#900);
#719=VERTEX_POINT('',#901);
#720=CIRCLE('',#902,12.0);
#721=VERTEX_POINT('',#903);
#722=LINE('',#904,#905);
#723=VERTEX_POINT('',#906);
#724=CIRCLE('',#907,12.0);
#725=LINE('',#908,#909);
#726=VERTEX_POINT('',#910);
#727=VERTEX_POINT('',#911);
#728=CIRCLE('',#912,83.0);
#729=VERTEX_POINT('',#913);
#730=LINE('',#914,#915);
#731=VERTEX_POINT('',#916);
#732=CIRCLE('',#917,83.0);
#733=VERTEX_POINT('',#918);
#734=LINE('',#919,#920);
#735=VERTEX_POINT('',#921);
#736=CIRCLE('',#922,83.0);
#737=VERTEX_POINT('',#923);
#738=LINE('',#924,#925);
#739=CIRCLE('',#926,83.0);
#740=CIRCLE('',#927,83.0);
#741=VERTEX_POINT('',#928);
#742=CIRCLE('',#929,20.0);
#743=VERTEX_POINT('',#930);
#744=CIRCLE('',#931,20.0);
#745=LINE('',#932,#933);
#746=VERTEX_POINT('',#934);
#747=VERTEX_POINT('',#935);
#748=LINE('',#936,#937);
#749=VERTEX_POINT('',#938);
#750=LINE('',#939,#940);
#751=LINE('',#941,#942);
#752=VERTEX_POINT('',#943);
#753=LINE('',#944,#945);
#754=LINE('',#946,#947);
#755=VERTEX_POINT('',#948);
#756=VERTEX_POINT('',#949);
#757=LINE('',#950,#951);
#758=VERTEX_POINT('',#952);
#759=LINE('',#953,#954);
#760=VERTEX_POINT('',#955);
#761=LINE('',#956,#957);
#762=LINE('',#958,#959);
#763=VERTEX_POINT('',#960);
#764=VERTEX_POINT('',#961);
#765=LINE('',#962,#963);
#766=LINE('',#964,#965);
#767=LINE('',#966,#967);
#768=VERTEX_POINT('',#968);
#769=VERTEX_POINT('',#969);
#770=CIRCLE('',#970,4.0);
#771=CIRCLE('',#971,4.0);
#772=VERTEX_POINT('',#972);
#773=VERTEX_POINT('',#973);
#774=CIRCLE('',#974,4.0);
#775=CIRCLE('',#975,4.0);
#776=VERTEX_POINT('',#976);
#777=LINE('',#977,#978);
#778=VERTEX_POINT('',#979);
#779=LINE('',#980,#981);
#780=LINE('',#982,#983);
#781=VERTEX_POINT('',#984);
#782=VERTEX_POINT('',#985);
#783=LINE('',#986,#987);
#784=VERTEX_POINT('',#988);
#785=CIRCLE('',#989,10.0);
#786=VERTEX_POINT('',#990);
#787=LINE('',#991,#992);
#788=CIRCLE('',#993,10.0);
#789=CIRCLE('',#994,10.0);
#790=CIRCLE('',#995,10.0);
#791=VERTEX_POINT('',#996);
#792=VERTEX_POINT('',#997);
#793=LINE('',#998,#999);
#794=VERTEX_POINT('',#1000);
#795=CIRCLE('',#1001,10.0);
#796=VERTEX_POINT('',#1002);
#797=LINE('',#1003,#1004);
#798=CIRCLE('',#1005,10.0);
#799=CIRCLE('',#1006,10.0);
#800=CIRCLE('',#1007,10.0);
#801=VERTEX_POINT('',#1008);
#802=VERTEX_POINT('',#1009);
#803=LINE('',#1010,#1011);
#804=VERTEX_POINT('',#1012);
#805=LINE('',#1013,#1014);
#806=VERTEX_POINT('',#1015);
#807=LINE('',#1016,#1017);
#808=VERTEX_POINT('',#1018);
#809=CIRCLE('',#1019,20.0);
#810=VERTEX_POINT('',#1020);
#811=LINE('',#1021,#1022);
#812=VERTEX_POINT('',#1023);
#813=LINE('',#1024,#1025);
#814=LINE('',#1026,#1027);
#815=VERTEX_POINT('',#1028);
#816=CIRCLE('',#1029,15.0);
#817=VERTEX_POINT('',#1030);
#818=CIRCLE('',#1031,53.0);
#819=CIRCLE('',#1032,15.0);
#820=CIRCLE('',#1033,20.0);
#821=VERTEX_POINT('',#1034);
#822=LINE('',#1035,#1036);
#823=CIRCLE('',#1037,15.0);
#824=VERTEX_POINT('',#1038);
#825=CIRCLE('',#1039,53.0);
#826=CIRCLE('',#1040,15.0);
#827=VERTEX_POINT('',#1041);
#828=VERTEX_POINT('',#1042);
#829=CIRCLE('',#1043,7.0);
#830=VERTEX_POINT('',#1044);
#831=CIRCLE('',#1045,75.0);
#832=VERTEX_POINT('',#1046);
#833=CIRCLE('',#1047,7.0);
#834=CIRCLE('',#1048,61.0);
#835=VERTEX_POINT('',#1049);
#836=VERTEX_POINT('',#1050);
#837=LINE('',#1051,#1052);
#838=CIRCLE('',#1053,20.0);
#839=LINE('',#1054,#1055);
#840=VERTEX_POINT('',#1056);
#841=LINE('',#1057,#1058);
#842=LINE('',#1059,#1060);
#843=VERTEX_POINT('',#1061);
#844=LINE('',#1062,#1063);
#845=VERTEX_POINT('',#1064);
#846=CIRCLE('',#1065,4.0);
#847=LINE('',#1066,#1067);
#848=CIRCLE('',#1068,4.0);
#849=VERTEX_POINT('',#1069);
#850=LINE('',#1070,#1071);
#851=VERTEX_POINT('',#1072);
#852=CIRCLE('',#1073,4.0);
#853=LINE('',#1074,#1075);
#854=CIRCLE('',#1076,4.0);
#855=VERTEX_POINT('',#1077);
#856=LINE('',#1078,#1079);
#857=LINE('',#1080,#1081);
#858=VERTEX_POINT('',#1082);
#859=VERTEX_POINT('',#1083);
#860=CIRCLE('',#1084,8.0);
#861=VERTEX_POINT('',#1085);
#862=LINE('',#1086,#1087);
#863=VERTEX_POINT('',#1088);
#864=CIRCLE('',#1089,8.0);
#865=LINE('',#1090,#1091);
#866=CIRCLE('',#1092,8.0);
#867=CIRCLE('',#1093,8.0);
#868=VERTEX_POINT('',#1094);
#869=VERTEX_POINT('',#1095);
#870=CIRCLE('',#1096,8.0);
#871=VERTEX_POINT('',#1097);
#872=LINE('',#1098,#1099);
#873=VERTEX_POINT('',#1100);
#874=CIRCLE('',#1101,8.0);
#875=LINE('',#1102,#1103);
#876=CIRCLE('',#1104,8.0);
#877=CIRCLE('',#1105,8.0);
#878=VERTEX_POINT('',#1106);
#879=B_SPLINE_CURVE_WITH_KNOTS('',5,(#1107,#1108,#1109,#1110,#1111,#1112,#1113,#1114,#1115,#1116,#1117,#1118),.UNSPECIFIED.,.F.,.F.,(6,3,3,6),(0.0,7.0617929258,13.8943058823,17.5213588269),.UNSPECIFIED.);
#880=LINE('',#1119,#1120);
#881=LINE('',#1121,#1122);
#882=LINE('',#1123,#1124);
#883=LINE('',#1125,#1126);
#884=LINE('',#1127,#1128);
#885=VERTEX_POINT('',#1129);
#886=LINE('',#1130,#1131);
#887=VERTEX_POINT('',#1132);
#888=CIRCLE('',#1133,75.0);
#889=LINE('',#1134,#1135);
#890=VERTEX_POINT('',#1136);
#891=LINE('',#1137,#1138);
#892=CIRCLE('',#1139,7.0);
#893=VERTEX_POINT('',#1140);
#894=LINE('',#1141,#1142);
#895=CIRCLE('',#1143,61.0);
#896=CIRCLE('',#1144,7.0);
#897=LINE('',#1145,#1146);
#898=LINE('',#1147,#1148);
#899=LINE('',#1149,#1150);
#900=CARTESIAN_POINT('',(113.342426502,-12.0,48.504837192));
#901=CARTESIAN_POINT('',(119.102777322,-12.0,40.4987738683));
#902=AXIS2_PLACEMENT_3D('',#1151,#1152,#1153);
#903=CARTESIAN_POINT('',(119.102777322,0.0,40.4987738683));
#904=CARTESIAN_POINT('',(119.102777322,-6.0,40.4987738683));
#905=VECTOR('',#1154,0.001);
#906=CARTESIAN_POINT('',(113.342426502,0.0,48.504837192));
#907=AXIS2_PLACEMENT_3D('',#1155,#1156,#1157);
#908=CARTESIAN_POINT('',(113.342426502,-6.0,48.504837192));
#909=VECTOR('',#1158,0.001);
#910=CARTESIAN_POINT('',(32.0,0.0,115.0));
#911=CARTESIAN_POINT('',(112.171843582,0.0,53.4819807435));
#912=AXIS2_PLACEMENT_3D('',#1159,#1160,#1161);
#913=CARTESIAN_POINT('',(32.0,-12.0,115.0));
#914=CARTESIAN_POINT('',(32.0,0.0,115.0));
#915=VECTOR('',#1162,0.001);
#916=CARTESIAN_POINT('',(73.5,-12.0,103.880108514));
#917=AXIS2_PLACEMENT_3D('',#1163,#1164,#1165);
#918=CARTESIAN_POINT('',(73.5,-15.0,103.880108514));
#919=CARTESIAN_POINT('',(73.5,0.0,103.880108514));
#920=VECTOR('',#1166,0.001);
#921=CARTESIAN_POINT('',(112.171843582,-15.0,53.4819807435));
#922=AXIS2_PLACEMENT_3D('',#1167,#1168,#1169);
#923=CARTESIAN_POINT('',(112.171843582,-12.0,53.4819807435));
#924=CARTESIAN_POINT('',(112.171843582,0.0,53.4819807435));
#925=VECTOR('',#1170,0.001);
#926=AXIS2_PLACEMENT_3D('',#1171,#1172,#1173);
#927=AXIS2_PLACEMENT_3D('',#1174,#1175,#1176);
#928=CARTESIAN_POINT('',(12.0,-12.0,95.0));
#929=AXIS2_PLACEMENT_3D('',#1177,#1178,#1179);
#930=CARTESIAN_POINT('',(12.0,0.0,95.0));
#931=AXIS2_PLACEMENT_3D('',#1180,#1181,#1182);
#932=CARTESIAN_POINT('',(12.0,-6.0,95.0));
#933=VECTOR('',#1183,0.001);
#934=CARTESIAN_POINT('',(12.0,-40.0,12.0));
#935=CARTESIAN_POINT('',(12.0,-40.0,32.0));
#936=CARTESIAN_POINT('',(12.0,-40.0,22.0));
#937=VECTOR('',#1184,0.001);
#938=CARTESIAN_POINT('',(12.0,-12.0,32.0));
#939=CARTESIAN_POINT('',(12.0,-26.0,32.0));
#940=VECTOR('',#1185,0.001);
#941=CARTESIAN_POINT('',(12.0,-12.0,63.5));
#942=VECTOR('',#1186,0.001);
#943=CARTESIAN_POINT('',(12.0,0.0,12.0));
#944=CARTESIAN_POINT('',(12.0,0.0,53.5));
#945=VECTOR('',#1187,0.001);
#946=CARTESIAN_POINT('',(12.0,-20.0,12.0));
#947=VECTOR('',#1188,0.001);
#948=CARTESIAN_POINT('',(0.0,0.0,0.0));
#949=CARTESIAN_POINT('',(0.0,0.0,12.0));
#950=CARTESIAN_POINT('',(0.0,0.0,6.0));
#951=VECTOR('',#1189,0.001);
#952=CARTESIAN_POINT('',(0.0,-45.0,0.0));
#953=CARTESIAN_POINT('',(0.0,-22.5,0.0));
#954=VECTOR('',#1190,0.001);
#955=CARTESIAN_POINT('',(0.0,-45.0,12.0));
#956=CARTESIAN_POINT('',(0.0,-45.0,6.0));
#957=VECTOR('',#1191,0.001);
#958=CARTESIAN_POINT('',(0.0,-22.5,12.0));
#959=VECTOR('',#1192,0.001);
#960=CARTESIAN_POINT('',(165.0,-45.0,0.0));
#961=CARTESIAN_POINT('',(165.0,0.0,0.0));
#962=CARTESIAN_POINT('',(165.0,-22.5,0.0));
#963=VECTOR('',#1193,0.001);
#964=CARTESIAN_POINT('',(82.5,-45.0,0.0));
#965=VECTOR('',#1194,0.001);
#966=CARTESIAN_POINT('',(82.5,0.0,0.0));
#967=VECTOR('',#1195,0.001);
#968=CARTESIAN_POINT('',(153.510330248,-36.9177021544,0.0));
#969=CARTESIAN_POINT('',(146.489669752,-33.0822978456,0.0));
#970=AXIS2_PLACEMENT_3D('',#1196,#1197,#1198);
#971=AXIS2_PLACEMENT_3D('',#1199,#1200,#1201);
#972=CARTESIAN_POINT('',(83.5103302476,-36.9177021544,0.0));
#973=CARTESIAN_POINT('',(76.4896697524,-33.0822978456,0.0));
#974=AXIS2_PLACEMENT_3D('',#1202,#1203,#1204);
#975=AXIS2_PLACEMENT_3D('',#1205,#1206,#1207);
#976=CARTESIAN_POINT('',(165.0,-12.0,14.0));
#977=CARTESIAN_POINT('',(142.051388661,-12.0,27.2493869342));
#978=VECTOR('',#1208,0.001);
#979=CARTESIAN_POINT('',(165.0,0.0,14.0));
#980=CARTESIAN_POINT('',(165.0,-6.0,14.0));
#981=VECTOR('',#1209,0.001);
#982=CARTESIAN_POINT('',(142.051388661,0.0,27.2493869342));
#983=VECTOR('',#1210,0.001);
#984=CARTESIAN_POINT('',(23.2241743811,-1.7763568394E-15,99.794255386));
#985=CARTESIAN_POINT('',(23.2241743811,-12.0,99.794255386));
#986=CARTESIAN_POINT('',(23.2241743811,-22.5,99.794255386));
#987=VECTOR('',#1211,0.001);
#988=CARTESIAN_POINT('',(40.7758256189,-1.7763568394E-15,90.205744614));
#989=AXIS2_PLACEMENT_3D('',#1212,#1213,#1214);
#990=CARTESIAN_POINT('',(40.7758256189,-12.0,90.205744614));
#991=CARTESIAN_POINT('',(40.7758256189,-22.5,90.205744614));
#992=VECTOR('',#1215,0.001);
#993=AXIS2_PLACEMENT_3D('',#1216,#1217,#1218);
#994=AXIS2_PLACEMENT_3D('',#1219,#1220,#1221);
#995=AXIS2_PLACEMENT_3D('',#1222,#1223,#1224);
#996=CARTESIAN_POINT('',(40.7758256189,0.0,27.205744614));
#997=CARTESIAN_POINT('',(40.7758256189,-40.0,27.205744614));
#998=CARTESIAN_POINT('',(40.7758256189,-22.5,27.205744614));
#999=VECTOR('',#1225,0.001);
#1000=CARTESIAN_POINT('',(23.2241743811,-40.0,36.794255386));
#1001=AXIS2_PLACEMENT_3D('',#1226,#1227,#1228);
#1002=CARTESIAN_POINT('',(23.2241743811,0.0,36.794255386));
#1003=CARTESIAN_POINT('',(23.2241743811,-22.5,36.794255386));
#1004=VECTOR('',#1229,0.001);
#1005=AXIS2_PLACEMENT_3D('',#1230,#1231,#1232);
#1006=AXIS2_PLACEMENT_3D('',#1233,#1234,#1235);
#1007=AXIS2_PLACEMENT_3D('',#1236,#1237,#1238);
#1008=CARTESIAN_POINT('',(26.0,-12.0,51.0787840283));
#1009=CARTESIAN_POINT('',(26.0,-12.0,74.8571428571));
#1010=CARTESIAN_POINT('',(26.0,-12.0,62.9679634427));
#1011=VECTOR('',#1239,0.001);
#1012=CARTESIAN_POINT('',(38.0,-12.0,74.8571428571));
#1013=CARTESIAN_POINT('',(32.0,-12.0,74.8571428571));
#1014=VECTOR('',#1240,0.001);
#1015=CARTESIAN_POINT('',(38.0,-12.0,51.0787840283));
#1016=CARTESIAN_POINT('',(38.0,-12.0,62.9679634427));
#1017=VECTOR('',#1241,0.001);
#1018=CARTESIAN_POINT('',(52.0,-12.0,32.0));
#1019=AXIS2_PLACEMENT_3D('',#1242,#1243,#1244);
#1020=CARTESIAN_POINT('',(52.0,-12.0,12.0));
#1021=CARTESIAN_POINT('',(52.0,-12.0,22.0));
#1022=VECTOR('',#1245,0.001);
#1023=CARTESIAN_POINT('',(165.0,-12.0,12.0));
#1024=CARTESIAN_POINT('',(108.5,-12.0,12.0));
#1025=VECTOR('',#1246,0.001);
#1026=CARTESIAN_POINT('',(165.0,-12.0,13.0));
#1027=VECTOR('',#1247,0.001);
#1028=CARTESIAN_POINT('',(83.1940687933,-12.0,45.7174093904));
#1029=AXIS2_PLACEMENT_3D('',#1248,#1249,#1250);
#1030=CARTESIAN_POINT('',(58.5,-12.0,77.8993464006));
#1031=AXIS2_PLACEMENT_3D('',#1251,#1252,#1253);
#1032=AXIS2_PLACEMENT_3D('',#1254,#1255,#1256);
#1033=AXIS2_PLACEMENT_3D('',#1257,#1258,#1259);
#1034=CARTESIAN_POINT('',(58.5,-15.0,77.8993464006));
#1035=CARTESIAN_POINT('',(58.5,-7.5,77.8993464006));
#1036=VECTOR('',#1260,0.001);
#1037=AXIS2_PLACEMENT_3D('',#1261,#1262,#1263);
#1038=CARTESIAN_POINT('',(83.1940687933,-15.0,45.7174093904));
#1039=AXIS2_PLACEMENT_3D('',#1264,#1265,#1266);
#1040=AXIS2_PLACEMENT_3D('',#1267,#1268,#1269);
#1041=CARTESIAN_POINT('',(62.5,-15.0,84.8275496309));
#1042=CARTESIAN_POINT('',(69.5,-15.0,96.9519052838));
#1043=AXIS2_PLACEMENT_3D('',#1270,#1271,#1272);
#1044=CARTESIAN_POINT('',(104.444436972,-15.0,51.4114283827));
#1045=AXIS2_PLACEMENT_3D('',#1273,#1274,#1275);
#1046=CARTESIAN_POINT('',(90.9214754036,-15.0,47.7879617513));
#1047=AXIS2_PLACEMENT_3D('',#1276,#1277,#1278);
#1048=AXIS2_PLACEMENT_3D('',#1279,#1280,#1281);
#1049=CARTESIAN_POINT('',(52.0,-40.0,32.0));
#1050=CARTESIAN_POINT('',(52.0,-40.0,12.0));
#1051=CARTESIAN_POINT('',(52.0,-40.0,22.0));
#1052=VECTOR('',#1282,0.001);
#1053=AXIS2_PLACEMENT_3D('',#1283,#1284,#1285);
#1054=CARTESIAN_POINT('',(32.0,-40.0,12.0));
#1055=VECTOR('',#1286,0.001);
#1056=CARTESIAN_POINT('',(165.0,-45.0,12.0));
#1057=CARTESIAN_POINT('',(82.5,-45.0,12.0));
#1058=VECTOR('',#1287,0.001);
#1059=CARTESIAN_POINT('',(165.0,-45.0,6.0));
#1060=VECTOR('',#1288,0.001);
#1061=CARTESIAN_POINT('',(146.489669752,-33.0822978456,7.0));
#1062=CARTESIAN_POINT('',(146.489669752,-33.0822978456,3.34499999942));
#1063=VECTOR('',#1289,0.001);
#1064=CARTESIAN_POINT('',(153.510330248,-36.9177021544,7.0));
#1065=AXIS2_PLACEMENT_3D('',#1290,#1291,#1292);
#1066=CARTESIAN_POINT('',(153.510330248,-36.9177021544,3.34499999942));
#1067=VECTOR('',#1293,0.001);
#1068=AXIS2_PLACEMENT_3D('',#1294,#1295,#1296);
#1069=CARTESIAN_POINT('',(76.4896697524,-33.0822978456,7.0));
#1070=CARTESIAN_POINT('',(76.4896697524,-33.0822978456,3.34499999942));
#1071=VECTOR('',#1297,0.001);
#1072=CARTESIAN_POINT('',(83.5103302476,-36.9177021544,7.0));
#1073=AXIS2_PLACEMENT_3D('',#1298,#1299,#1300);
#1074=CARTESIAN_POINT('',(83.5103302476,-36.9177021544,3.34499999942));
#1075=VECTOR('',#1301,0.001);
#1076=AXIS2_PLACEMENT_3D('',#1302,#1303,#1304);
#1077=CARTESIAN_POINT('',(26.0,-36.9672767702,51.0787840283));
#1078=CARTESIAN_POINT('',(26.0,-24.4836383851,51.0787840283));
#1079=VECTOR('',#1305,0.001);
#1080=CARTESIAN_POINT('',(26.0,-13.5,73.4285714286));
#1081=VECTOR('',#1306,0.001);
#1082=CARTESIAN_POINT('',(87.0206604951,-38.8354043088,12.0));
#1083=CARTESIAN_POINT('',(72.9793395049,-31.1645956912,12.0));
#1084=AXIS2_PLACEMENT_3D('',#1307,#1308,#1309);
#1085=CARTESIAN_POINT('',(72.9793395049,-31.1645956912,7.0));
#1086=CARTESIAN_POINT('',(72.9793395049,-31.1645956912,61.1550000006));
#1087=VECTOR('',#1310,0.001);
#1088=CARTESIAN_POINT('',(87.0206604951,-38.8354043088,7.0));
#1089=AXIS2_PLACEMENT_3D('',#1311,#1312,#1313);
#1090=CARTESIAN_POINT('',(87.0206604951,-38.8354043088,61.1550000006));
#1091=VECTOR('',#1314,0.001);
#1092=AXIS2_PLACEMENT_3D('',#1315,#1316,#1317);
#1093=AXIS2_PLACEMENT_3D('',#1318,#1319,#1320);
#1094=CARTESIAN_POINT('',(157.020660495,-38.8354043088,12.0));
#1095=CARTESIAN_POINT('',(142.979339505,-31.1645956912,12.0));
#1096=AXIS2_PLACEMENT_3D('',#1321,#1322,#1323);
#1097=CARTESIAN_POINT('',(142.979339505,-31.1645956912,7.0));
#1098=CARTESIAN_POINT('',(142.979339505,-31.1645956912,61.1550000006));
#1099=VECTOR('',#1324,0.001);
#1100=CARTESIAN_POINT('',(157.020660495,-38.8354043088,7.0));
#1101=AXIS2_PLACEMENT_3D('',#1325,#1326,#1327);
#1102=CARTESIAN_POINT('',(157.020660495,-38.8354043088,61.1550000006));
#1103=VECTOR('',#1328,0.001);
#1104=AXIS2_PLACEMENT_3D('',#1329,#1330,#1331);
#1105=AXIS2_PLACEMENT_3D('',#1332,#1333,#1334);
#1106=CARTESIAN_POINT('',(38.0,-36.9672767702,51.0787840283));
#1107=CARTESIAN_POINT('',(38.0,-36.9672767702,51.0787840283));
#1108=CARTESIAN_POINT('',(37.0913275227,-36.6672242827,51.3645483022));
#1109=CARTESIAN_POINT('',(36.1501146866,-36.4188464556,51.6010986137));
#1110=CARTESIAN_POINT('',(35.1816901335,-36.2281814235,51.7826843586));
#1111=CARTESIAN_POINT('',(33.2395004023,-35.9771349315,52.0217762557));
#1112=CARTESIAN_POINT('',(31.2671185445,-35.9770180555,52.0218875662));
#1113=CARTESIAN_POINT('',(30.2999867667,-36.0392552682,51.9626140303));
#1114=CARTESIAN_POINT('',(28.8385202265,-36.2270819533,51.783731473));
#1115=CARTESIAN_POINT('',(27.4251708681,-36.546649069,51.4793818391));
#1116=CARTESIAN_POINT('',(26.9420024531,-36.6726848601,51.3593477523));
#1117=CARTESIAN_POINT('',(26.4667091232,-36.8131648797,51.2255572574));
#1118=CARTESIAN_POINT('',(26.0,-36.9672767702,51.0787840283));
#1119=CARTESIAN_POINT('',(38.0,-13.5,73.4285714286));
#1120=VECTOR('',#1335,0.001);
#1121=CARTESIAN_POINT('',(38.0,-24.4836383851,51.0787840283));
#1122=VECTOR('',#1336,0.001);
#1123=CARTESIAN_POINT('',(52.0,-26.0,32.0));
#1124=VECTOR('',#1337,0.001);
#1125=CARTESIAN_POINT('',(52.0,-26.0,12.0));
#1126=VECTOR('',#1338,0.001);
#1127=CARTESIAN_POINT('',(83.1940687933,-7.5,45.7174093904));
#1128=VECTOR('',#1339,0.001);
#1129=CARTESIAN_POINT('',(69.5,0.0,96.9519052838));
#1130=CARTESIAN_POINT('',(69.5,-23.1600000002,96.9519052838));
#1131=VECTOR('',#1340,0.001);
#1132=CARTESIAN_POINT('',(104.444436972,0.0,51.4114283827));
#1133=AXIS2_PLACEMENT_3D('',#1341,#1342,#1343);
#1134=CARTESIAN_POINT('',(104.444436972,-23.1600000002,51.4114283827));
#1135=VECTOR('',#1344,0.001);
#1136=CARTESIAN_POINT('',(62.5,0.0,84.8275496309));
#1137=CARTESIAN_POINT('',(62.5,-23.1600000002,84.8275496309));
#1138=VECTOR('',#1345,0.001);
#1139=AXIS2_PLACEMENT_3D('',#1346,#1347,#1348);
#1140=CARTESIAN_POINT('',(90.9214754036,0.0,47.7879617513));
#1141=CARTESIAN_POINT('',(90.9214754036,-23.1600000002,47.7879617513));
#1142=VECTOR('',#1349,0.001);
#1143=AXIS2_PLACEMENT_3D('',#1350,#1351,#1352);
#1144=AXIS2_PLACEMENT_3D('',#1353,#1354,#1355);
#1145=CARTESIAN_POINT('',(165.0,-28.5,12.0));
#1146=VECTOR('',#1356,0.001);
#1147=CARTESIAN_POINT('',(165.0,0.0,7.0));
#1148=VECTOR('',#1357,0.001);
#1149=CARTESIAN_POINT('',(6.0,0.0,12.0));
#1150=VECTOR('',#1358,0.001);
#1151=CARTESIAN_POINT('',(125.102777322,-12.0,50.8910787137));
#1152=DIRECTION('',(-0.0,1.0,0.0));
#1153=DIRECTION('',(1.0,0.0,0.0));
#1154=DIRECTION('',(0.0,1.0,0.0));
#1155=CARTESIAN_POINT('',(125.102777322,0.0,50.8910787137));
#1156=DIRECTION('',(-0.0,1.0,0.0));
#1157=DIRECTION('',(1.0,0.0,0.0));
#1158=DIRECTION('',(0.0,1.0,0.0));
#1159=CARTESIAN_POINT('',(32.0,0.0,32.0));
#1160=DIRECTION('',(-0.0,1.0,0.0));
#1161=DIRECTION('',(1.0,0.0,0.0));
#1162=DIRECTION('',(0.0,1.0,0.0));
#1163=CARTESIAN_POINT('',(32.0,-12.0,32.0));
#1164=DIRECTION('',(-0.0,1.0,0.0));
#1165=DIRECTION('',(1.0,0.0,0.0));
#1166=DIRECTION('',(0.0,1.0,0.0));
#1167=CARTESIAN_POINT('',(32.0,-15.0,32.0));
#1168=DIRECTION('',(-0.0,1.0,0.0));
#1169=DIRECTION('',(1.0,0.0,0.0));
#1170=DIRECTION('',(0.0,1.0,0.0));
#1171=CARTESIAN_POINT('',(32.0,-12.0,32.0));
#1172=DIRECTION('',(-0.0,1.0,0.0));
#1173=DIRECTION('',(1.0,0.0,0.0));
#1174=CARTESIAN_POINT('',(32.0,0.0,32.0));
#1175=DIRECTION('',(-0.0,1.0,0.0));
#1176=DIRECTION('',(1.0,0.0,0.0));
#1177=CARTESIAN_POINT('',(32.0,-12.0,95.0));
#1178=DIRECTION('',(-0.0,1.0,0.0));
#1179=DIRECTION('',(1.0,0.0,0.0));
#1180=CARTESIAN_POINT('',(32.0,0.0,95.0));
#1181=DIRECTION('',(-0.0,1.0,0.0));
#1182=DIRECTION('',(1.0,0.0,0.0));
#1183=DIRECTION('',(0.0,1.0,0.0));
#1184=DIRECTION('',(-8.881784197E-17,0.0,-1.0));
#1185=DIRECTION('',(0.0,-1.0,0.0));
#1186=DIRECTION('',(-5.63922806159E-17,0.0,-1.0));
#1187=DIRECTION('',(-6.4205668894E-17,0.0,-1.0));
#1188=DIRECTION('',(0.0,-1.0,0.0));
#1189=DIRECTION('',(0.0,0.0,1.0));
#1190=DIRECTION('',(0.0,-1.0,0.0));
#1191=DIRECTION('',(0.0,0.0,1.0));
#1192=DIRECTION('',(0.0,-1.0,0.0));
#1193=DIRECTION('',(0.0,1.0,0.0));
#1194=DIRECTION('',(-1.0,0.0,0.0));
#1195=DIRECTION('',(1.0,0.0,0.0));
#1196=CARTESIAN_POINT('',(150.0,-35.0,0.0));
#1197=DIRECTION('',(0.0,0.0,1.0));
#1198=DIRECTION('',(1.0,0.0,0.0));
#1199=CARTESIAN_POINT('',(150.0,-35.0,0.0));
#1200=DIRECTION('',(0.0,0.0,1.0));
#1201=DIRECTION('',(1.0,0.0,0.0));
#1202=CARTESIAN_POINT('',(80.0,-35.0,0.0));
#1203=DIRECTION('',(0.0,0.0,1.0));
#1204=DIRECTION('',(1.0,0.0,0.0));
#1205=CARTESIAN_POINT('',(80.0,-35.0,0.0));
#1206=DIRECTION('',(0.0,0.0,1.0));
#1207=DIRECTION('',(1.0,0.0,0.0));
#1208=DIRECTION('',(-0.866025403784329,0.0,0.50000000000019));
#1209=DIRECTION('',(0.0,-1.0,0.0));
#1210=DIRECTION('',(-0.866025403784329,0.0,0.50000000000019));
#1211=DIRECTION('',(0.0,1.0,0.0));
#1212=CARTESIAN_POINT('',(32.0,0.0,95.0));
#1213=DIRECTION('',(-0.0,1.0,0.0));
#1214=DIRECTION('',(1.0,0.0,0.0));
#1215=DIRECTION('',(0.0,1.0,0.0));
#1216=CARTESIAN_POINT('',(32.0,-12.0,95.0));
#1217=DIRECTION('',(-0.0,1.0,0.0));
#1218=DIRECTION('',(1.0,0.0,0.0));
#1219=CARTESIAN_POINT('',(32.0,-12.0,95.0));
#1220=DIRECTION('',(-0.0,1.0,0.0));
#1221=DIRECTION('',(1.0,0.0,0.0));
#1222=CARTESIAN_POINT('',(32.0,0.0,95.0));
#1223=DIRECTION('',(-0.0,1.0,0.0));
#1224=DIRECTION('',(1.0,0.0,0.0));
#1225=DIRECTION('',(0.0,1.0,0.0));
#1226=CARTESIAN_POINT('',(32.0,-40.0,32.0));
#1227=DIRECTION('',(-0.0,1.0,0.0));
#1228=DIRECTION('',(1.0,0.0,0.0));
#1229=DIRECTION('',(0.0,1.0,0.0));
#1230=CARTESIAN_POINT('',(32.0,0.0,32.0));
#1231=DIRECTION('',(-0.0,1.0,0.0));
#1232=DIRECTION('',(1.0,0.0,0.0));
#1233=CARTESIAN_POINT('',(32.0,-40.0,32.0));
#1234=DIRECTION('',(-0.0,1.0,0.0));
#1235=DIRECTION('',(1.0,0.0,0.0));
#1236=CARTESIAN_POINT('',(32.0,0.0,32.0));
#1237=DIRECTION('',(-0.0,1.0,0.0));
#1238=DIRECTION('',(1.0,0.0,0.0));
#1239=DIRECTION('',(0.0,0.0,1.0));
#1240=DIRECTION('',(-1.0,0.0,0.0));
#1241=DIRECTION('',(0.0,0.0,1.0));
#1242=CARTESIAN_POINT('',(32.0,-12.0,32.0));
#1243=DIRECTION('',(-0.0,1.0,0.0));
#1244=DIRECTION('',(1.0,0.0,0.0));
#1245=DIRECTION('',(0.0,0.0,1.0));
#1246=DIRECTION('',(1.0,0.0,0.0));
#1247=DIRECTION('',(0.0,0.0,1.0));
#1248=CARTESIAN_POINT('',(97.6829561877,-12.0,49.599695067));
#1249=DIRECTION('',(-0.0,1.0,0.0));
#1250=DIRECTION('',(1.0,0.0,0.0));
#1251=CARTESIAN_POINT('',(32.0,-12.0,32.0));
#1252=DIRECTION('',(-0.0,1.0,0.0));
#1253=DIRECTION('',(1.0,0.0,0.0));
#1254=CARTESIAN_POINT('',(66.0,-12.0,90.8897274573));
#1255=DIRECTION('',(-0.0,1.0,0.0));
#1256=DIRECTION('',(1.0,0.0,0.0));
#1257=CARTESIAN_POINT('',(32.0,-12.0,32.0));
#1258=DIRECTION('',(-0.0,1.0,0.0));
#1259=DIRECTION('',(1.0,0.0,0.0));
#1260=DIRECTION('',(0.0,1.0,0.0));
#1261=CARTESIAN_POINT('',(66.0,-15.0,90.8897274573));
#1262=DIRECTION('',(-0.0,1.0,0.0));
#1263=DIRECTION('',(1.0,0.0,0.0));
#1264=CARTESIAN_POINT('',(32.0,-15.0,32.0));
#1265=DIRECTION('',(-0.0,1.0,0.0));
#1266=DIRECTION('',(1.0,0.0,0.0));
#1267=CARTESIAN_POINT('',(97.6829561877,-15.0,49.599695067));
#1268=DIRECTION('',(-0.0,1.0,0.0));
#1269=DIRECTION('',(1.0,0.0,0.0));
#1270=CARTESIAN_POINT('',(66.0,-15.0,90.8897274573));
#1271=DIRECTION('',(-0.0,1.0,0.0));
#1272=DIRECTION('',(1.0,0.0,0.0));
#1273=CARTESIAN_POINT('',(32.0,-15.0,32.0));
#1274=DIRECTION('',(-0.0,1.0,0.0));
#1275=DIRECTION('',(1.0,0.0,0.0));
#1276=CARTESIAN_POINT('',(97.6829561877,-15.0,49.599695067));
#1277=DIRECTION('',(-0.0,1.0,0.0));
#1278=DIRECTION('',(1.0,0.0,0.0));
#1279=CARTESIAN_POINT('',(32.0,-15.0,32.0));
#1280=DIRECTION('',(-0.0,1.0,0.0));
#1281=DIRECTION('',(1.0,0.0,0.0));
#1282=DIRECTION('',(0.0,0.0,1.0));
#1283=CARTESIAN_POINT('',(32.0,-40.0,32.0));
#1284=DIRECTION('',(-0.0,1.0,0.0));
#1285=DIRECTION('',(1.0,0.0,0.0));
#1286=DIRECTION('',(-1.0,0.0,0.0));
#1287=DIRECTION('',(-1.0,0.0,0.0));
#1288=DIRECTION('',(0.0,0.0,1.0));
#1289=DIRECTION('',(0.0,0.0,-1.0));
#1290=CARTESIAN_POINT('',(150.0,-35.0,7.0));
#1291=DIRECTION('',(0.0,0.0,-1.0));
#1292=DIRECTION('',(1.0,0.0,0.0));
#1293=DIRECTION('',(0.0,0.0,-1.0));
#1294=CARTESIAN_POINT('',(150.0,-35.0,7.0));
#1295=DIRECTION('',(0.0,0.0,-1.0));
#1296=DIRECTION('',(1.0,0.0,0.0));
#1297=DIRECTION('',(0.0,0.0,-1.0));
#1298=CARTESIAN_POINT('',(80.0,-35.0,7.0));
#1299=DIRECTION('',(0.0,0.0,-1.0));
#1300=DIRECTION('',(1.0,0.0,0.0));
#1301=DIRECTION('',(0.0,0.0,-1.0));
#1302=CARTESIAN_POINT('',(80.0,-35.0,7.0));
#1303=DIRECTION('',(0.0,0.0,-1.0));
#1304=DIRECTION('',(1.0,0.0,0.0));
#1305=DIRECTION('',(0.0,1.0,0.0));
#1306=DIRECTION('',(0.0,0.72413793103415,0.689655172414143));
#1307=CARTESIAN_POINT('',(80.0,-35.0,12.0));
#1308=DIRECTION('',(0.0,0.0,-1.0));
#1309=DIRECTION('',(1.0,0.0,0.0));
#1310=DIRECTION('',(0.0,0.0,-1.0));
#1311=CARTESIAN_POINT('',(80.0,-35.0,7.0));
#1312=DIRECTION('',(0.0,0.0,-1.0));
#1313=DIRECTION('',(1.0,0.0,0.0));
#1314=DIRECTION('',(0.0,0.0,-1.0));
#1315=CARTESIAN_POINT('',(80.0,-35.0,12.0));
#1316=DIRECTION('',(0.0,0.0,-1.0));
#1317=DIRECTION('',(1.0,0.0,0.0));
#1318=CARTESIAN_POINT('',(80.0,-35.0,7.0));
#1319=DIRECTION('',(0.0,0.0,-1.0));
#1320=DIRECTION('',(1.0,0.0,0.0));
#1321=CARTESIAN_POINT('',(150.0,-35.0,12.0));
#1322=DIRECTION('',(0.0,0.0,-1.0));
#1323=DIRECTION('',(1.0,0.0,0.0));
#1324=DIRECTION('',(0.0,0.0,-1.0));
#1325=CARTESIAN_POINT('',(150.0,-35.0,7.0));
#1326=DIRECTION('',(0.0,0.0,-1.0));
#1327=DIRECTION('',(1.0,0.0,0.0));
#1328=DIRECTION('',(0.0,0.0,-1.0));
#1329=CARTESIAN_POINT('',(150.0,-35.0,12.0));
#1330=DIRECTION('',(0.0,0.0,-1.0));
#1331=DIRECTION('',(1.0,0.0,0.0));
#1332=CARTESIAN_POINT('',(150.0,-35.0,7.0));
#1333=DIRECTION('',(0.0,0.0,-1.0));
#1334=DIRECTION('',(1.0,0.0,0.0));
#1335=DIRECTION('',(0.0,0.72413793103415,0.689655172414143));
#1336=DIRECTION('',(0.0,1.0,0.0));
#1337=DIRECTION('',(0.0,-1.0,0.0));
#1338=DIRECTION('',(0.0,-1.0,0.0));
#1339=DIRECTION('',(0.0,1.0,0.0));
#1340=DIRECTION('',(0.0,1.0,0.0));
#1341=CARTESIAN_POINT('',(32.0,0.0,32.0));
#1342=DIRECTION('',(-0.0,1.0,0.0));
#1343=DIRECTION('',(1.0,0.0,0.0));
#1344=DIRECTION('',(0.0,1.0,0.0));
#1345=DIRECTION('',(0.0,1.0,0.0));
#1346=CARTESIAN_POINT('',(66.0,0.0,90.8897274573));
#1347=DIRECTION('',(-0.0,1.0,0.0));
#1348=DIRECTION('',(1.0,0.0,0.0));
#1349=DIRECTION('',(0.0,1.0,0.0));
#1350=CARTESIAN_POINT('',(32.0,0.0,32.0));
#1351=DIRECTION('',(-0.0,1.0,0.0));
#1352=DIRECTION('',(1.0,0.0,0.0));
#1353=CARTESIAN_POINT('',(97.6829561877,0.0,49.599695067));
#1354=DIRECTION('',(-0.0,1.0,0.0));
#1355=DIRECTION('',(1.0,0.0,0.0));
#1356=DIRECTION('',(0.0,1.0,0.0));
#1357=DIRECTION('',(0.0,0.0,1.0));
#1358=DIRECTION('',(1.0,0.0,0.0));
ENDSEC;
END-ISO-10303-21;
